<svg width="1600" height="2493" viewBox="0 0 1600 2493" xmlns="http://www.w3.org/2000/svg">
  <rect width="100%" height="100%" fill="white"/>
  <polygon points="419,199 494,199 494,222 419,222" fill="#dadcdf"/>
  <polygon points="569,201 651,201 651,222 569,222" fill="#dadcdf"/>
  <polygon points="712,203 783,203 783,221 712,221" fill="#dadcdf"/>
  <polygon points="284,202 356,202 356,223 284,223" fill="#dadcdf"/>
  <polygon points="786,200 827,200 827,222 786,222" fill="#dadcdf"/>
  <polygon points="198,115 247,115 247,133 198,133" fill="#dadcdf"/>
  <polygon points="282,115 339,115 339,133 282,133" fill="#dadcdf"/>
  <polygon points="453,118 508,118 508,133 453,133" fill="#dadcdf"/>
  <polygon points="362,116 423,116 423,133 362,133" fill="#dadcdf"/>
  <polygon points="252,1966 253,1966 253,1940 252,1940" fill="#dadcdf"/>
  <polygon points="373,2018 452,2018 452,2191 373,2191" fill="#dadcdf"/>
  <polygon points="208,269 337,269 337,286 208,286" fill="#dadcdf"/>
  <polygon points="115,514 159,514 159,654 115,654" fill="#dadcdf"/>
  <polygon points="124,1089 151,1089 151,1160 124,1160" fill="#dadcdf"/>
  <polygon points="202,510 266,510 266,329 202,329" fill="#dadcdf"/>
  <polygon points="279,331 336,331 336,510 279,510" fill="#dadcdf"/>
  <polygon points="200,613 259,613 259,1017 200,1017" fill="#dadcdf"/>
  <polygon points="284,619 285,619 285,640 284,640" fill="#dadcdf"/>
  <polygon points="199,1095 255,1095 255,1219 199,1219" fill="#dadcdf"/>
  <polygon points="278,1105 321,1105 321,1216 278,1216" fill="#dadcdf"/>
  <polygon points="272,1217 332,1217 332,1098 272,1098" fill="#dadcdf"/>
  <polygon points="197,1268 254,1268 254,1610 197,1610" fill="#dadcdf"/>
  <polygon points="275,1270 349,1270 349,1610 275,1610" fill="#dadcdf"/>
  <polygon points="190,1705 254,1705 254,1842 190,1842" fill="#dadcdf"/>
  <polygon points="272,1709 335,1709 335,1840 272,1840" fill="#dadcdf"/>
  <polygon points="213,1915 259,1915 259,2110 213,2110" fill="#dadcdf"/>
  <polygon points="264,1915 312,1915 312,2112 264,2112" fill="#dadcdf"/>
  <polygon points="497,1600 478,1600 478,1602 497,1602" fill="#dadcdf"/>
  <polygon points="110,1350 136,1350 136,1469 110,1469" fill="#dadcdf"/>
  <polygon points="120,742 159,742 159,849 120,849" fill="#dadcdf"/>
  <polygon points="127,1181 159,1181 159,1277 127,1277" fill="#dadcdf"/>
  <polygon points="99,1477 154,1477 154,1619 99,1619" fill="#dadcdf"/>
  <polygon points="104,1625 157,1625 157,1714 104,1714" fill="#dadcdf"/>
  <polygon points="452,616 501,616 501,799 452,799" fill="#dadcdf"/>
  <polygon points="376,580 428,580 428,799 376,799" fill="#dadcdf"/>
  <polygon points="451,1015 495,1015 495,866 451,866" fill="#dadcdf"/>
  <polygon points="372,802 399,802 399,812 372,812" fill="#dadcdf"/>
  <polygon points="341,1073 411,1073 411,1090 341,1090" fill="#dadcdf"/>
  <polygon points="377,505 427,505 427,328 377,328" fill="#dadcdf"/>
  <polygon points="458,505 503,505 503,328 458,328" fill="#dadcdf"/>
  <polygon points="471,1075 540,1075 540,1089 471,1089" fill="#dadcdf"/>
  <polygon points="1452,2276 1526,2276 1526,2380 1452,2380" fill="#dadcdf"/>
  <polygon points="1368,2278 1422,2278 1422,2286 1368,2286" fill="#dadcdf"/>
  <polygon points="1368,2278 1447,2278 1447,2380 1368,2380" fill="#dadcdf"/>
  <polygon points="740,739 795,739 795,496 740,496" fill="#dadcdf"/>
  <polygon points="873,740 824,740 824,497 873,497" fill="#dadcdf"/>
  <polygon points="756,793 809,793 809,1020 756,1020" fill="#dadcdf"/>
  <polygon points="830,1017 878,1017 878,794 830,794" fill="#dadcdf"/>
  <polygon points="758,1094 820,1094 820,1332 758,1332" fill="#dadcdf"/>
  <polygon points="836,1096 897,1096 897,1328 836,1328" fill="#dadcdf"/>
  <polygon points="116,2034 144,2034 144,2167 116,2167" fill="#dadcdf"/>
  <polygon points="273,1018 336,1018 336,609 273,609" fill="#dadcdf"/>
  <polygon points="429,1015 390,1015 390,867 429,867" fill="#dadcdf"/>
  <polygon points="707,917 729,917 729,989 707,989" fill="#dadcdf"/>
  <polygon points="456,2019 520,2019 520,2191 456,2191" fill="#dadcdf"/>
  <polygon points="72,1720 125,1720 125,1761 72,1761" fill="#dadcdf"/>
  <polygon points="353,269 420,269 420,288 353,288" fill="#dadcdf"/>
  <polygon points="433,269 565,269 565,289 433,289" fill="#dadcdf"/>
  <polygon points="658,1074 725,1074 725,1090 658,1090" fill="#dadcdf"/>
  <polygon points="838,1388 906,1388 906,1477 838,1477" fill="#dadcdf"/>
  <polygon points="728,1376 744,1376 744,1453 728,1453" fill="#dadcdf"/>
  <polygon points="725,1240 745,1240 745,1322 725,1322" fill="#dadcdf"/>
  <polygon points="758,1388 823,1388 823,1479 758,1479" fill="#dadcdf"/>
  <polygon points="726,1645 746,1645 746,1734 726,1734" fill="#dadcdf"/>
  <polygon points="728,1747 749,1747 749,1925 728,1925" fill="#dadcdf"/>
  <polygon points="552,2020 603,2020 603,2070 552,2070" fill="#dadcdf"/>
  <polygon points="553,2083 614,2083 614,2194 553,2194" fill="#dadcdf"/>
  <polygon points="649,2085 711,2085 711,2197 649,2197" fill="#dadcdf"/>
  <polygon points="324,2258 502,2258 502,2283 324,2283" fill="#dadcdf"/>
  <polygon points="535,2260 697,2260 697,2285 535,2285" fill="#dadcdf"/>
  <polygon points="764,2197 808,2197 808,2018 764,2018" fill="#dadcdf"/>
  <polygon points="830,2197 877,2197 877,2018 830,2018" fill="#dadcdf"/>
  <polygon points="700,2261 772,2261 772,2287 700,2287" fill="#dadcdf"/>
  <polygon points="644,1106 708,1106 708,1205 644,1205" fill="#dadcdf"/>
  <polygon points="642,1216 708,1216 708,1282 642,1282" fill="#dadcdf"/>
  <polygon points="612,1705 552,1705 552,1322 612,1322" fill="#dadcdf"/>
  <polygon points="641,1323 705,1323 705,1708 641,1708" fill="#dadcdf"/>
  <polygon points="608,1300 553,1300 553,1109 608,1109" fill="#dadcdf"/>
  <polygon points="639,1746 707,1746 707,1932 639,1932" fill="#dadcdf"/>
  <polygon points="559,1746 615,1746 615,1934 559,1934" fill="#dadcdf"/>
  <polygon points="463,1764 523,1764 523,1929 463,1929" fill="#dadcdf"/>
  <polygon points="435,1926 374,1926 374,1765 435,1765" fill="#dadcdf"/>
  <polygon points="465,1134 525,1134 525,1729 465,1729" fill="#dadcdf"/>
  <polygon points="424,1138 369,1138 369,1730 424,1730" fill="#dadcdf"/>
  <polygon points="689,1029 640,1029 640,862 689,862" fill="#dadcdf"/>
  <polygon points="530,851 587,851 587,1029 530,1029" fill="#dadcdf"/>
  <polygon points="622,762 662,762 662,800 622,800" fill="#dadcdf"/>
  <polygon points="621,558 664,558 664,680 621,680" fill="#dadcdf"/>
  <polygon points="624,694 662,694 662,731 624,731" fill="#dadcdf"/>
  <polygon points="525,461 578,461 578,508 525,508" fill="#dadcdf"/>
  <polygon points="525,410 577,410 577,448 525,448" fill="#dadcdf"/>
  <polygon points="606,465 655,465 655,515 606,515" fill="#dadcdf"/>
  <polygon points="601,329 663,329 663,409 601,409" fill="#dadcdf"/>
  <polygon points="688,734 712,734 712,574 688,574" fill="#dadcdf"/>
  <polygon points="528,566 597,566 597,805 528,805" fill="#dadcdf"/>
  <polygon points="178,1457 200,1457 200,1593 178,1593" fill="#dadcdf"/>
  <polygon points="179,1302 203,1302 203,1439 179,1439" fill="#dadcdf"/>
  <polygon points="575,271 721,271 721,290 575,290" fill="#dadcdf"/>
  <polygon points="195,222 837,222 837,269 195,269" fill="#dadcdf"/>
  <polygon points="725,271 839,271 839,292 725,292" fill="#dadcdf"/>
  <polygon points="176,2153 268,2153 268,2177 176,2177" fill="#dadcdf"/>
  <polygon points="727,1492 748,1492 748,1623 727,1623" fill="#dadcdf"/>
  <polygon points="660,121 803,121 803,137 660,137" fill="#dadcdf"/>
  <polygon points="656,120 520,120 520,137 656,137" fill="#dadcdf"/>
  <polygon points="1156,121 1248,121 1248,141 1156,141" fill="#dadcdf"/>
  <polygon points="1109,122 1022,122 1022,144 1109,144" fill="#dadcdf"/>
  <polygon points="815,223 842,223 842,254 815,254" fill="#dadcdf"/>
  <text x="519" y="245" text-anchor="middle" font-family="Microsoft YaHei, Arial" font-size="15.708629328000002" fill="#000000" line-height="1.0"><tspan x="519" dy="0">M</tspan><tspan x="519" dy="10.996040529600002"></tspan><tspan x="519" dy="21.992081059200004"></tspan><tspan x="519" dy="32.988121588800006"></tspan><tspan x="519" dy="43.98416211840001">F</tspan><tspan x="519" dy="54.98020264800001"></tspan><tspan x="519" dy="65.97624317760001"></tspan><tspan x="519" dy="76.9722837072"></tspan><tspan x="519" dy="87.96832423680002"></tspan><tspan x="519" dy="98.96436476640002">S</tspan><tspan x="519" dy="109.96040529600002"></tspan><tspan x="519" dy="120.95644582560001"></tspan><tspan x="519" dy="131.95248635520002"></tspan><tspan x="519" dy="142.9485268848">T</tspan><tspan x="519" dy="153.9445674144"></tspan><tspan x="519" dy="164.94060794400002"></tspan><tspan x="519" dy="175.93664847360003"></tspan><tspan x="519" dy="186.9326890032">K</tspan><tspan x="519" dy="197.92872953280005"></tspan><tspan x="519" dy="208.92477006240003"></tspan><tspan x="519" dy="219.92081059200004"></tspan><tspan x="519" dy="230.91685112160002">A</tspan><tspan x="519" dy="241.91289165120003"></tspan><tspan x="519" dy="252.9089321808"></tspan><tspan x="519" dy="263.90497271040005"></tspan><tspan x="519" dy="274.90101324">0</tspan><tspan x="519" dy="285.8970537696"></tspan><tspan x="519" dy="296.8930942992"></tspan><tspan x="519" dy="307.8891348288">0</tspan></text>
  <text x="809" y="211" text-anchor="middle" font-family="Microsoft YaHei, Arial" font-size="8" fill="#000000" line-height="1.0"><tspan x="809" dy="0">???</tspan></text>
  <text x="226" y="123" text-anchor="middle" font-family="Microsoft YaHei, Arial" font-size="8" fill="#000000" line-height="1.0"><tspan x="226" dy="0">MFLFTB00</tspan></text>
  <text x="312" y="123" text-anchor="middle" font-family="Microsoft YaHei, Arial" font-size="8" fill="#000000" line-height="1.0"><tspan x="312" dy="0">MFLFTC00</tspan></text>
  <text x="393" y="123" text-anchor="middle" font-family="Microsoft YaHei, Arial" font-size="8" fill="#000000" line-height="1.0"><tspan x="393" dy="0">MFLFTD00</tspan></text>
  <text x="482" y="124" text-anchor="middle" font-family="Microsoft YaHei, Arial" font-size="8" fill="#000000" line-height="1.0"><tspan x="482" dy="0">MFLFTE00</tspan></text>
  <text x="224" y="1770" text-anchor="middle" font-family="Arial, Arial" font-size="11.73504" fill="#000000" line-height="1.0"><tspan x="224" dy="0">BAP#M</tspan></text>
  <text x="238" y="2009" text-anchor="middle" font-family="Arial, Arial" font-size="9.162137280000001" fill="#000000" line-height="1.0"><tspan x="238" dy="0">LLC#M</tspan></text>
  <text x="415" y="2087" text-anchor="middle" font-family="Arial, Arial" font-size="15.014404800000001" fill="#000000" line-height="1.0"><tspan x="415" dy="0">LOC</tspan><tspan x="415" dy="10.51008336">M</tspan></text>
  <text x="265" y="272" text-anchor="middle" font-family="Arial, Arial" font-size="9.600000000000001" fill="#000000" line-height="1.0"><tspan x="265" dy="0">403</tspan></text>
  <text x="127" y="581" text-anchor="middle" font-family="Microsoft YaHei, Arial" font-size="17.279999999999998" fill="#000000" line-height="1.0"><tspan x="127" dy="0">4</tspan><tspan x="127" dy="12.095999999999998">2</tspan><tspan x="127" dy="24.191999999999997">7</tspan></text>
  <text x="129" y="1124" text-anchor="middle" font-family="Arial, Arial" font-size="14.4" fill="#000000" line-height="1.0"><tspan x="129" dy="0">4</tspan><tspan x="129" dy="10.08">2</tspan><tspan x="129" dy="20.16">5</tspan></text>
  <text x="305" y="1769" text-anchor="middle" font-family="Arial, Arial" font-size="12.01147872" fill="#000000" line-height="1.0"><tspan x="305" dy="0">BAP#N</tspan></text>
  <text x="291" y="2009" text-anchor="middle" font-family="Arial, Arial" font-size="8.42514672" fill="#000000" line-height="1.0"><tspan x="291" dy="0">LLC#N</tspan></text>
  <text x="407" y="1325" text-anchor="middle" font-family="Arial, Arial" font-size="14.28464832" fill="#000000" line-height="1.0"><tspan x="407" dy="0">SRG#M</tspan></text>
  <text x="522" y="1327" text-anchor="middle" font-family="Microsoft YaHei, Arial" font-size="13.7856984" fill="#000000" line-height="1.0"><tspan x="522" dy="0">SRG#N</tspan></text>
  <text x="410" y="1830" text-anchor="middle" font-family="Arial, Arial" font-size="15.36" fill="#000000" line-height="1.0"><tspan x="410" dy="0">2D</tspan><tspan x="410" dy="10.751999999999999">M</tspan></text>
  <text x="492" y="1832" text-anchor="middle" font-family="Arial, Arial" font-size="15.36" fill="#000000" line-height="1.0"><tspan x="492" dy="0">2D</tspan><tspan x="492" dy="10.751999999999999">N</tspan></text>
  <text x="128" y="1406" text-anchor="middle" font-family="Microsoft YaHei, Arial" font-size="12.76409712" fill="#000000" line-height="1.0"><tspan x="128" dy="0">4</tspan><tspan x="128" dy="8.934867984">2</tspan><tspan x="128" dy="17.869735968">3</tspan></text>
  <text x="146" y="752" text-anchor="middle" font-family="Microsoft YaHei, Arial" font-size="15.72870672" fill="#000000" line-height="1.0"><tspan x="146" dy="0">4</tspan></text>
  <text x="147" y="785" text-anchor="middle" font-family="Microsoft YaHei, Arial" font-size="16.3661352" fill="#000000" line-height="1.0"><tspan x="147" dy="0">2</tspan></text>
  <text x="146" y="828" text-anchor="middle" font-family="Microsoft YaHei, Arial" font-size="17.387625600000003" fill="#000000" line-height="1.0"><tspan x="146" dy="0">6</tspan></text>
  <text x="146" y="1202" text-anchor="middle" font-family="Microsoft YaHei, Arial" font-size="17.387625600000003" fill="#000000" line-height="1.0"><tspan x="146" dy="0">4</tspan></text>
  <text x="145" y="1230" text-anchor="middle" font-family="Microsoft YaHei, Arial" font-size="17.387625600000003" fill="#000000" line-height="1.0"><tspan x="145" dy="0">2</tspan></text>
  <text x="143" y="1260" text-anchor="middle" font-family="Microsoft YaHei, Arial" font-size="17.387625600000003" fill="#000000" line-height="1.0"><tspan x="143" dy="0">4</tspan></text>
  <text x="127" y="1506" text-anchor="middle" font-family="Microsoft YaHei, Arial" font-size="17.387625600000003" fill="#000000" line-height="1.0"><tspan x="127" dy="0">4</tspan></text>
  <text x="129" y="1638" text-anchor="middle" font-family="Microsoft YaHei, Arial" font-size="17.387625600000003" fill="#000000" line-height="1.0"><tspan x="129" dy="0">4</tspan></text>
  <text x="126" y="1544" text-anchor="middle" font-family="Microsoft YaHei, Arial" font-size="17.387625600000003" fill="#000000" line-height="1.0"><tspan x="126" dy="0">2</tspan></text>
  <text x="130" y="1664" text-anchor="middle" font-family="Microsoft YaHei, Arial" font-size="17.387625600000003" fill="#000000" line-height="1.0"><tspan x="130" dy="0">2</tspan></text>
  <text x="126" y="1580" text-anchor="middle" font-family="Microsoft YaHei, Arial" font-size="17.387625600000003" fill="#000000" line-height="1.0"><tspan x="126" dy="0">2</tspan></text>
  <text x="131" y="1692" text-anchor="middle" font-family="Microsoft YaHei, Arial" font-size="17.387625600000003" fill="#000000" line-height="1.0"><tspan x="131" dy="0">1</tspan></text>
  <text x="322" y="212" text-anchor="middle" font-family="Microsoft YaHei, Arial" font-size="8.2867848" fill="#000000" line-height="1.0"><tspan x="322" dy="0">AGVPORT4</tspan></text>
  <text x="458" y="211" text-anchor="middle" font-family="Microsoft YaHei, Arial" font-size="8.15624064" fill="#000000" line-height="1.0"><tspan x="458" dy="0">AGVPORT3</tspan></text>
  <text x="612" y="212" text-anchor="middle" font-family="Microsoft YaHei, Arial" font-size="9.57704112" fill="#000000" line-height="1.0"><tspan x="612" dy="0">AGVPORT2</tspan></text>
  <text x="752" y="211" text-anchor="middle" font-family="Microsoft YaHei, Arial" font-size="8.279057759999999" fill="#000000" line-height="1.0"><tspan x="752" dy="0">AGVPORT1</tspan></text>
  <text x="474" y="936" text-anchor="middle" font-family="Microsoft YaHei, Arial" font-size="8.13306048" fill="#000000" line-height="1.0"><tspan x="474" dy="0">AOI#N</tspan></text>
  <text x="384" y="1083" text-anchor="middle" font-family="Microsoft YaHei, Arial" font-size="8" fill="#000000" line-height="1.0"><tspan x="384" dy="0">410</tspan></text>
  <text x="479" y="693" text-anchor="middle" font-family="Microsoft YaHei, Arial" font-size="8.947302239999999" fill="#000000" line-height="1.0"><tspan x="479" dy="0">GGA#V</tspan></text>
  <text x="404" y="407" text-anchor="middle" font-family="Microsoft YaHei, Arial" font-size="8" fill="#000000" line-height="1.0"><tspan x="404" dy="0">GDM#M</tspan></text>
  <text x="482" y="408" text-anchor="middle" font-family="Microsoft YaHei, Arial" font-size="8.10234" fill="#000000" line-height="1.0"><tspan x="482" dy="0">GDM#L</tspan></text>
  <text x="401" y="693" text-anchor="middle" font-family="Microsoft YaHei, Arial" font-size="8.39414784" fill="#000000" line-height="1.0"><tspan x="401" dy="0">GGA#W</tspan></text>
  <text x="511" y="1081" text-anchor="middle" font-family="Microsoft YaHei, Arial" font-size="9.646130880000001" fill="#000000" line-height="1.0"><tspan x="511" dy="0">409</tspan></text>
  <text x="1489" y="2321" text-anchor="middle" font-family="Microsoft YaHei, Arial" font-size="8.77851456" fill="#000000" line-height="1.0"><tspan x="1489" dy="0">MFLFTG00</tspan></text>
  <text x="1409" y="2322" text-anchor="middle" font-family="Microsoft YaHei, Arial" font-size="10.13742096" fill="#000000" line-height="1.0"><tspan x="1409" dy="0">MFLFTF00</tspan></text>
  <text x="768" y="612" text-anchor="middle" font-family="Microsoft YaHei, Arial" font-size="9.530879520000001" fill="#000000" line-height="1.0"><tspan x="768" dy="0">GOT#M</tspan></text>
  <text x="849" y="612" text-anchor="middle" font-family="Microsoft YaHei, Arial" font-size="9.15440544" fill="#000000" line-height="1.0"><tspan x="849" dy="0">GOT#N</tspan></text>
  <text x="785" y="883" text-anchor="middle" font-family="Microsoft YaHei, Arial" font-size="9.6921288" fill="#000000" line-height="1.0"><tspan x="785" dy="0">GRF#M</tspan></text>
  <text x="856" y="884" text-anchor="middle" font-family="Microsoft YaHei, Arial" font-size="9.30045792" fill="#000000" line-height="1.0"><tspan x="856" dy="0">GRF#N</tspan></text>
  <text x="790" y="1185" text-anchor="middle" font-family="Microsoft YaHei, Arial" font-size="10.8288192" fill="#000000" line-height="1.0"><tspan x="790" dy="0">MPB#M</tspan></text>
  <text x="868" y="1186" text-anchor="middle" font-family="Microsoft YaHei, Arial" font-size="10.621345920000001" fill="#000000" line-height="1.0"><tspan x="868" dy="0">MPB#N</tspan></text>
  <text x="140" y="2096" text-anchor="middle" font-family="Microsoft YaHei, Arial" font-size="18.14013264" fill="#000000" line-height="1.0"><tspan x="140" dy="0">4</tspan><tspan x="140" dy="12.698092848">2</tspan><tspan x="140" dy="25.396185696">0</tspan></text>
  <text x="787" y="2090" text-anchor="middle" font-family="Microsoft YaHei, Arial" font-size="11.305049760000001" fill="#000000" line-height="1.0"><tspan x="787" dy="0">KSP#M</tspan></text>
  <text x="879" y="2090" text-anchor="middle" font-family="Microsoft YaHei, Arial" font-size="11.5429824" fill="#000000" line-height="1.0"><tspan x="879" dy="0">KSP#N</tspan></text>
  <text x="237" y="403" text-anchor="middle" font-family="Microsoft YaHei, Arial" font-size="10.03780608" fill="#000000" line-height="1.0"><tspan x="237" dy="0">PAT#M</tspan></text>
  <text x="233" y="423" text-anchor="middle" font-family="Microsoft YaHei, Arial" font-size="8.03315184" fill="#000000" line-height="1.0"><tspan x="233" dy="0">?POL?</tspan></text>
  <text x="309" y="405" text-anchor="middle" font-family="Microsoft YaHei, Arial" font-size="10.39100112" fill="#000000" line-height="1.0"><tspan x="309" dy="0">PAT#N</tspan></text>
  <text x="308" y="424" text-anchor="middle" font-family="Microsoft YaHei, Arial" font-size="8" fill="#000000" line-height="1.0"><tspan x="308" dy="0">?POL?</tspan></text>
  <text x="230" y="794" text-anchor="middle" font-family="Microsoft YaHei, Arial" font-size="10.582992480000001" fill="#000000" line-height="1.0"><tspan x="230" dy="0">LLO#M</tspan></text>
  <text x="307" y="794" text-anchor="middle" font-family="Microsoft YaHei, Arial" font-size="11.25114816" fill="#000000" line-height="1.0"><tspan x="307" dy="0">LLO#N</tspan></text>
  <text x="229" y="1131" text-anchor="middle" font-family="Microsoft YaHei, Arial" font-size="9.25453056" fill="#000000" line-height="1.0"><tspan x="229" dy="0">CPC#N</tspan></text>
  <text x="304" y="1132" text-anchor="middle" font-family="Microsoft YaHei, Arial" font-size="9.73057824" fill="#000000" line-height="1.0"><tspan x="304" dy="0">CPC#P</tspan></text>
  <text x="229" y="1156" text-anchor="middle" font-family="Microsoft YaHei, Arial" font-size="8" fill="#000000" line-height="1.0"><tspan x="229" dy="0">?Line</tspan><tspan x="229" dy="5.6">Cut?</tspan></text>
  <text x="305" y="1155" text-anchor="middle" font-family="Microsoft YaHei, Arial" font-size="8" fill="#000000" line-height="1.0"><tspan x="305" dy="0">?Line</tspan><tspan x="305" dy="5.6">Cut?</tspan></text>
  <text x="225" y="1407" text-anchor="middle" font-family="Microsoft YaHei, Arial" font-size="10.944080159999999" fill="#000000" line-height="1.0"><tspan x="225" dy="0">BOP#M</tspan></text>
  <text x="317" y="1406" text-anchor="middle" font-family="Microsoft YaHei, Arial" font-size="10.91346384" fill="#000000" line-height="1.0"><tspan x="317" dy="0">BOP#N</tspan></text>
  <text x="292" y="2026" text-anchor="middle" font-family="Microsoft YaHei, Arial" font-size="8" fill="#000000" line-height="1.0"><tspan x="292" dy="0">?ODD?</tspan></text>
  <text x="402" y="712" text-anchor="middle" font-family="Microsoft YaHei, Arial" font-size="8.217688319999999" fill="#000000" line-height="1.0"><tspan x="402" dy="0">?GM?</tspan></text>
  <text x="477" y="711" text-anchor="middle" font-family="Microsoft YaHei, Arial" font-size="8" fill="#000000" line-height="1.0"><tspan x="477" dy="0">?GM?</tspan></text>
  <text x="406" y="423" text-anchor="middle" font-family="Microsoft YaHei, Arial" font-size="8" fill="#000000" line-height="1.0"><tspan x="406" dy="0">?DM?</tspan></text>
  <text x="484" y="422" text-anchor="middle" font-family="Microsoft YaHei, Arial" font-size="8" fill="#000000" line-height="1.0"><tspan x="484" dy="0">?DM?</tspan></text>
  <text x="410" y="937" text-anchor="middle" font-family="Microsoft YaHei, Arial" font-size="8" fill="#000000" line-height="1.0"><tspan x="410" dy="0">AOI#M</tspan></text>
  <text x="773" y="629" text-anchor="middle" font-family="Microsoft YaHei, Arial" font-size="8" fill="#000000" line-height="1.0"><tspan x="773" dy="0">?AFT?</tspan></text>
  <text x="852" y="628" text-anchor="middle" font-family="Microsoft YaHei, Arial" font-size="8" fill="#000000" line-height="1.0"><tspan x="852" dy="0">?AFT?</tspan></text>
  <text x="221" y="1426" text-anchor="middle" font-family="Microsoft YaHei, Arial" font-size="8.72427888" fill="#000000" line-height="1.0"><tspan x="221" dy="0">?BD?</tspan></text>
  <text x="313" y="1423" text-anchor="middle" font-family="Microsoft YaHei, Arial" font-size="8.348245440000001" fill="#000000" line-height="1.0"><tspan x="313" dy="0">?BD?</tspan></text>
  <text x="222" y="1785" text-anchor="middle" font-family="Microsoft YaHei, Arial" font-size="8" fill="#000000" line-height="1.0"><tspan x="222" dy="0">?AMT?</tspan></text>
  <text x="307" y="1786" text-anchor="middle" font-family="Microsoft YaHei, Arial" font-size="8" fill="#000000" line-height="1.0"><tspan x="307" dy="0">?AMT?</tspan></text>
  <text x="786" y="904" text-anchor="middle" font-family="Microsoft YaHei, Arial" font-size="8.348245440000001" fill="#000000" line-height="1.0"><tspan x="786" dy="0">?SCF?</tspan></text>
  <text x="856" y="903" text-anchor="middle" font-family="Microsoft YaHei, Arial" font-size="8" fill="#000000" line-height="1.0"><tspan x="856" dy="0">?SCF?</tspan></text>
  <text x="794" y="1211" text-anchor="middle" font-family="Microsoft YaHei, Arial" font-size="8.48650464" fill="#000000" line-height="1.0"><tspan x="794" dy="0">(Bending)</tspan></text>
  <text x="867" y="1211" text-anchor="middle" font-family="Microsoft YaHei, Arial" font-size="8.985477119999999" fill="#000000" line-height="1.0"><tspan x="867" dy="0">(Bending)</tspan></text>
  <text x="404" y="1354" text-anchor="middle" font-family="Microsoft YaHei, Arial" font-size="11.458567200000001" fill="#000000" line-height="1.0"><tspan x="404" dy="0">?3D?</tspan></text>
  <text x="509" y="1355" text-anchor="middle" font-family="Microsoft YaHei, Arial" font-size="11.458567200000001" fill="#000000" line-height="1.0"><tspan x="509" dy="0">?3D?</tspan></text>
  <text x="722" y="952" text-anchor="middle" font-family="Microsoft YaHei, Arial" font-size="15.68255136" fill="#000000" line-height="1.0"><tspan x="722" dy="0">4</tspan><tspan x="722" dy="10.977785952">5</tspan><tspan x="722" dy="21.955571904">2</tspan></text>
  <text x="97" y="1741" text-anchor="middle" font-family="Microsoft YaHei, Arial" font-size="8.46362448" fill="#000000" line-height="1.0"><tspan x="97" dy="0">PPF300</tspan></text>
  <text x="490" y="2089" text-anchor="middle" font-family="Microsoft YaHei, Arial" font-size="13.478464799999998" fill="#000000" line-height="1.0"><tspan x="490" dy="0">LOC</tspan><tspan x="490" dy="9.434925359999998">N</tspan></text>
  <text x="773" y="279" text-anchor="middle" font-family="Microsoft YaHei, Arial" font-size="12.24942096" fill="#000000" line-height="1.0"><tspan x="773" dy="0">4</tspan><tspan x="773" dy="8.574594672"></tspan><tspan x="773" dy="17.149189344"></tspan><tspan x="773" dy="25.723784015999996">0</tspan><tspan x="773" dy="34.298378688"></tspan><tspan x="773" dy="42.872973359999996"></tspan><tspan x="773" dy="51.44756803199999">6</tspan></text>
  <text x="632" y="279" text-anchor="middle" font-family="Microsoft YaHei, Arial" font-size="12.24942096" fill="#000000" line-height="1.0"><tspan x="632" dy="0">4</tspan><tspan x="632" dy="8.574594672">0</tspan><tspan x="632" dy="17.149189344">5</tspan></text>
  <text x="703" y="1083" text-anchor="middle" font-family="Microsoft YaHei, Arial" font-size="9.7996464" fill="#000000" line-height="1.0"><tspan x="703" dy="0">4</tspan><tspan x="703" dy="6.85975248">5</tspan><tspan x="703" dy="13.71950496">1</tspan></text>
  <text x="880" y="1430" text-anchor="middle" font-family="Microsoft YaHei, Arial" font-size="15.29090976" fill="#000000" line-height="1.0"><tspan x="880" dy="0">ic</tspan><tspan x="880" dy="10.703636831999999">tape#M</tspan></text>
  <text x="745" y="1278" text-anchor="middle" font-family="Microsoft YaHei, Arial" font-size="13.3402176" fill="#000000" line-height="1.0"><tspan x="745" dy="0">4</tspan><tspan x="745" dy="9.33815232">1</tspan><tspan x="745" dy="18.67630464">1</tspan></text>
  <text x="744" y="1414" text-anchor="middle" font-family="Microsoft YaHei, Arial" font-size="14.92215456" fill="#000000" line-height="1.0"><tspan x="744" dy="0">4</tspan><tspan x="744" dy="10.445508191999998"></tspan><tspan x="744" dy="20.891016383999997">1</tspan><tspan x="744" dy="31.336524576">2</tspan></text>
  <text x="744" y="1549" text-anchor="middle" font-family="Microsoft YaHei, Arial" font-size="14.04642864" fill="#000000" line-height="1.0"><tspan x="744" dy="0">4</tspan><tspan x="744" dy="9.832500048">1</tspan><tspan x="744" dy="19.665000096">3</tspan></text>
  <text x="800" y="1433" text-anchor="middle" font-family="Microsoft YaHei, Arial" font-size="16.93424928" fill="#000000" line-height="1.0"><tspan x="800" dy="0">ic</tspan><tspan x="800" dy="11.853974496">tape#N</tspan></text>
  <text x="746" y="1689" text-anchor="middle" font-family="Microsoft YaHei, Arial" font-size="16.197233280000003" fill="#000000" line-height="1.0"><tspan x="746" dy="0">4</tspan><tspan x="746" dy="11.338063296000001">1</tspan><tspan x="746" dy="22.676126592000003">4</tspan></text>
  <text x="749" y="1833" text-anchor="middle" font-family="Microsoft YaHei, Arial" font-size="19.02327936" fill="#000000" line-height="1.0"><tspan x="749" dy="0">4</tspan><tspan x="749" dy="13.316295552">1</tspan><tspan x="749" dy="26.632591104">5</tspan></text>
  <text x="426" y="2269" text-anchor="middle" font-family="Microsoft YaHei, Arial" font-size="18.91563744" fill="#000000" line-height="1.0"><tspan x="426" dy="0">4</tspan><tspan x="426" dy="13.240946208">1</tspan><tspan x="426" dy="26.481892416">9</tspan></text>
  <text x="616" y="2274" text-anchor="middle" font-family="Microsoft YaHei, Arial" font-size="20.52843744" fill="#000000" line-height="1.0"><tspan x="616" dy="0">4</tspan><tspan x="616" dy="14.369906208">1</tspan><tspan x="616" dy="28.739812416">8</tspan></text>
  <text x="754" y="2276" text-anchor="middle" font-family="Microsoft YaHei, Arial" font-size="14.269478880000001" fill="#000000" line-height="1.0"><tspan x="754" dy="0">4</tspan><tspan x="754" dy="9.988635216">1</tspan><tspan x="754" dy="19.977270432">7</tspan></text>
  <text x="706" y="661" text-anchor="middle" font-family="Microsoft YaHei, Arial" font-size="15.72842112" fill="#000000" line-height="1.0"><tspan x="706" dy="0">4</tspan><tspan x="706" dy="11.009894784">0</tspan><tspan x="706" dy="22.019789568">8</tspan></text>
  <text x="199" y="1530" text-anchor="middle" font-family="Microsoft YaHei, Arial" font-size="15.974472479999998" fill="#000000" line-height="1.0"><tspan x="199" dy="0">4</tspan><tspan x="199" dy="11.182130735999998">5</tspan><tspan x="199" dy="22.364261471999995">4</tspan></text>
  <text x="200" y="1366" text-anchor="middle" font-family="Microsoft YaHei, Arial" font-size="19.03870992" fill="#000000" line-height="1.0"><tspan x="200" dy="0">4</tspan><tspan x="200" dy="13.327096944">5</tspan><tspan x="200" dy="26.654193888">3</tspan></text>
  <text x="398" y="280" text-anchor="middle" font-family="Microsoft YaHei, Arial" font-size="14.36932416" fill="#000000" line-height="1.0"><tspan x="398" dy="0">404</tspan></text>
  <text x="502" y="278" text-anchor="middle" font-family="Microsoft YaHei, Arial" font-size="14.36932416" fill="#000000" line-height="1.0"><tspan x="502" dy="0">455</tspan></text>
  <text x="228" y="2166" text-anchor="middle" font-family="Microsoft YaHei, Arial" font-size="14.36932416" fill="#000000" line-height="1.0"><tspan x="228" dy="0">456</tspan></text>
  <text x="587" y="128" text-anchor="middle" font-family="Microsoft YaHei, Arial" font-size="14.36932416" fill="#000000" line-height="1.0"><tspan x="587" dy="0">402</tspan></text>
  <text x="732" y="128" text-anchor="middle" font-family="Microsoft YaHei, Arial" font-size="14.36932416" fill="#000000" line-height="1.0"><tspan x="732" dy="0">401</tspan></text>
  <text x="1228" y="132" text-anchor="middle" font-family="Microsoft YaHei, Arial" font-size="14.36932416" fill="#000000" line-height="1.0"><tspan x="1228" dy="0">457</tspan></text>
  <text x="1075" y="132" text-anchor="middle" font-family="Microsoft YaHei, Arial" font-size="14.42297808" fill="#000000" line-height="1.0"><tspan x="1075" dy="0">407</tspan></text>
  <text x="414" y="2119" text-anchor="middle" font-family="Microsoft YaHei, Arial" font-size="12.01147776" fill="#000000" line-height="1.0"><tspan x="414" dy="0">（O-cut)</tspan></text>
  <text x="487" y="2121" text-anchor="middle" font-family="Microsoft YaHei, Arial" font-size="10.997880480000001" fill="#000000" line-height="1.0"><tspan x="487" dy="0">（O-cut)</tspan></text>
  <text x="236" y="2026" text-anchor="middle" font-family="Microsoft YaHei, Arial" font-size="8" fill="#000000" line-height="1.0"><tspan x="236" dy="0">(ODD)</tspan></text>
  <text x="837" y="237" text-anchor="middle" font-family="Microsoft YaHei, Arial" font-size="8" fill="#000000" line-height="1.0"><tspan x="837" dy="0">值班室</tspan></text>
</svg>